HIERARCHY
ROOT SimulationBone
{
	OFFSET 0.000000 0.000000 0.000000
	CHANNELS 6 Xposition Yposition Zposition Zrotation Yrotation Xrotation 
	JOINT Hips
	{
		OFFSET 0.000000 0.000000 0.000000
		CHANNELS 6 Xposition Yposition Zposition Zrotation Yrotation Xrotation 
		JOINT LeftUpLeg
		{
			OFFSET 0.103456 1.857832 10.548506
			CHANNELS 3 Zrotation Yrotation Xrotation
			JOINT LeftLeg
			{
				OFFSET 43.499996 -0.000050 0.000004
				CHANNELS 3 Zrotation Yrotation Xrotation
				JOINT LeftFoot
				{
					OFFSET 42.372196 0.000023 -0.000001
					CHANNELS 3 Zrotation Yrotation Xrotation
					JOINT LeftToe
					{
						OFFSET 17.299999 -0.000001 0.000005
						CHANNELS 3 Zrotation Yrotation Xrotation
						End Site
						{
							OFFSET 0.000000 0.000000 0.000000
						}
					}
				}
			}
		}
		JOINT RightUpLeg
		{
			OFFSET 0.103461 1.857838 -10.548502
			CHANNELS 3 Zrotation Yrotation Xrotation
			JOINT RightLeg
			{
				OFFSET 43.500053 -0.000023 0.000017
				CHANNELS 3 Zrotation Yrotation Xrotation
				JOINT RightFoot
				{
					OFFSET 42.372261 -0.000019 0.000013
					CHANNELS 3 Zrotation Yrotation Xrotation
					JOINT RightToe
					{
						OFFSET 17.299999 -0.000002 0.000004
						CHANNELS 3 Zrotation Yrotation Xrotation
						End Site
						{
							OFFSET 0.000000 0.000000 0.000000
						}
					}
				}
			}
		}
		JOINT Spine
		{
			OFFSET 6.901962 -2.603720 0.000005
			CHANNELS 3 Zrotation Yrotation Xrotation
			JOINT Spine1
			{
				OFFSET 12.588104 -0.000017 -0.000004
				CHANNELS 3 Zrotation Yrotation Xrotation
				JOINT Spine2
				{
					OFFSET 12.343203 0.000008 0.000001
					CHANNELS 3 Zrotation Yrotation Xrotation
					JOINT Neck
					{
						OFFSET 25.832893 0.000002 -0.000003
						CHANNELS 3 Zrotation Yrotation Xrotation
						JOINT Head
						{
							OFFSET 11.766610 0.000004 -0.000002
							CHANNELS 3 Zrotation Yrotation Xrotation
							End Site
							{
								OFFSET 0.000000 0.000000 0.000000
							}
						}
					}
					JOINT LeftShoulder
					{
						OFFSET 19.745901 -1.480358 6.000100
						CHANNELS 3 Zrotation Yrotation Xrotation
						JOINT LeftArm
						{
							OFFSET 11.284128 -0.000004 -0.000015
							CHANNELS 3 Zrotation Yrotation Xrotation
							JOINT LeftForeArm
							{
								OFFSET 33.000053 0.000025 0.000029
								CHANNELS 3 Zrotation Yrotation Xrotation
								JOINT LeftHand
								{
									OFFSET 25.200005 0.000009 -0.000002
									CHANNELS 3 Zrotation Yrotation Xrotation
									End Site
									{
										OFFSET 0.000000 0.000000 0.000000
									}
								}
							}
						}
					}
					JOINT RightShoulder
					{
						OFFSET 19.746098 -1.480389 -6.000077
						CHANNELS 3 Zrotation Yrotation Xrotation
						JOINT RightArm
						{
							OFFSET 11.284138 -0.000023 -0.000010
							CHANNELS 3 Zrotation Yrotation Xrotation
							JOINT RightForeArm
							{
								OFFSET 33.000103 0.000022 0.000003
								CHANNELS 3 Zrotation Yrotation Xrotation
								JOINT RightHand
								{
									OFFSET 25.199776 0.000131 0.000429
									CHANNELS 3 Zrotation Yrotation Xrotation
									End Site
									{
										OFFSET 0.000000 0.000000 0.000000
									}
								}
							}
						}
					}
				}
			}
		}
	}
}
MOTION
Frames: 7
Frame Time: 0.033333
189.355857 0.000000 -430.444912 180.000000 72.923862 180.000000 -1.240220 94.479797 4.187879 91.281401 9.078062 174.083943 -174.143528 3.109295 167.502330 -33.681777 2.591433 -2.640355 67.489045 2.256850 1.076364 21.454553 0.003101 -0.000003 159.229837 -2.658099 175.388685 -33.057661 0.293931 5.165076 71.671122 -1.369281 7.728426 21.454557 -0.003116 -0.000017 8.492125 0.483074 -1.333850 6.959678 1.045199 -2.636395 6.641883 1.029401 -2.642650 -11.114644 -1.467943 8.938483 2.033487 -5.839856 9.082972 178.971898 -72.407232 -0.269100 4.164101 55.145605 21.943023 -106.529299 2.751176 2.846891 2.496771 -12.347326 6.392704 152.678989 72.694393 -26.719818 27.555985 -51.978228 -35.884796 -98.524987 0.499071 -2.763568 4.344382 7.286094 -36.712311 
188.197047 0.000000 -436.109618 180.000000 70.212645 180.000000 -0.418410 94.342270 3.840361 91.881199 8.408188 173.160965 -172.797885 4.233095 169.893101 -38.730192 2.728086 -5.038481 67.275109 1.965205 -4.525685 21.454555 0.003095 0.000000 160.351491 -1.166702 175.387947 -24.144565 1.734217 3.936882 68.248165 0.911157 11.163872 21.454562 -0.003112 -0.000019 8.595091 0.466833 -1.140958 7.167735 1.003217 -2.250949 6.849853 0.989744 -2.256959 -12.297460 -2.038941 8.781876 1.807895 -5.942067 8.713577 176.996825 -73.034605 1.746284 7.733243 54.453290 26.676351 -108.239811 3.148237 2.894142 1.219203 -10.600278 6.094029 151.336201 73.828587 -28.018293 29.207695 -50.911366 -37.610027 -99.868670 0.014873 -2.789917 3.959792 7.036320 -37.932449 
186.794658 0.000000 -441.687201 180.000000 67.449215 180.000000 -0.165043 93.055321 4.132734 92.381109 9.365573 172.708094 -172.937125 3.225800 172.191473 -46.597644 2.504403 -5.044520 72.420352 1.936627 -5.191713 21.454555 0.003092 -0.000000 160.722520 -1.608190 175.905375 -20.928693 3.323127 3.605116 65.451900 3.150388 15.736549 21.454560 -0.003106 -0.000017 8.766391 0.773486 -0.931737 7.507974 1.605593 -1.811589 7.189905 1.594774 -1.821250 -13.453419 -2.238065 8.594815 2.555458 -6.186682 8.408103 177.856705 -73.030882 0.862837 8.800112 53.201546 29.718440 -107.942588 3.196229 2.877861 0.919366 -9.942227 4.571231 152.221585 74.134955 -27.094922 28.296377 -48.725941 -37.367658 -101.473798 -0.341071 -2.836817 4.282377 6.373251 -37.844924 
185.169387 0.000000 -447.205021 180.000000 64.629549 180.000000 -0.080686 90.641693 4.778166 93.239245 9.957519 172.944659 -174.211351 1.857099 172.651254 -55.942357 3.018718 -3.589220 76.537297 0.778628 -6.133747 21.454541 0.003087 0.000007 161.139995 -1.613600 -179.447812 -23.767740 2.971784 1.599237 64.313061 5.624360 17.639886 21.454557 -0.003109 -0.000016 8.878349 0.972670 -0.869878 7.730394 2.001096 -1.673146 7.412243 1.991096 -1.685198 -12.180300 -2.592240 8.381603 1.916770 -5.784412 8.092338 178.971706 -73.274563 -0.288632 9.080547 52.513677 32.047507 -107.312401 2.798162 2.877918 3.242200 -9.576761 4.201167 152.267784 72.863256 -27.129382 27.382681 -45.405633 -36.228071 -102.227906 -0.639155 -2.849682 3.071888 7.146472 -37.218821 
183.341399 0.000000 -452.665388 180.000000 61.735104 180.000000 -0.234131 87.995064 5.783618 94.331997 11.881252 174.357828 -176.453825 -1.514210 173.666275 -65.691988 3.425372 -3.964315 80.850144 0.740498 -8.154487 21.454555 0.003093 -0.000004 162.103639 -3.945604 -175.880431 -33.103608 1.957596 1.867743 74.088373 1.415942 9.714117 21.454558 -0.003105 -0.000017 9.055347 1.458173 -0.913754 8.078138 2.976382 -1.724139 7.759732 2.966054 -1.742077 -10.787731 -2.956829 8.192429 1.091947 -5.310659 7.799822 -179.487591 -73.027392 -1.866724 8.695393 51.847307 32.264219 -105.332104 2.443782 2.815656 4.148337 -7.739739 5.210361 151.658299 72.954569 -27.746243 25.463345 -44.570642 -34.935540 -102.574804 -0.574567 -2.869628 3.614990 6.880103 -34.867740 
181.344787 0.000000 -458.047438 180.000000 58.739088 180.000000 -0.764463 85.486526 6.785709 94.299555 12.967042 175.288295 178.415374 -3.514602 174.013768 -74.284734 4.506240 -8.264979 86.843977 4.759052 -4.366483 21.454543 0.003090 -0.000002 162.339321 -5.660300 -174.857938 -42.246202 1.251722 3.969695 85.492378 -0.943462 10.091279 21.454563 -0.003104 -0.000018 9.063014 1.798703 -0.753840 8.095264 3.645539 -1.380773 7.776575 3.637263 -1.402773 -11.018676 -2.407510 7.385558 0.162174 -6.665040 7.548541 -179.121328 -72.097626 -2.225062 6.487829 51.932018 29.472403 -102.562797 1.571439 2.754108 4.511241 -5.498077 10.489407 154.923307 71.507989 -24.496687 22.024397 -42.844762 -30.437898 -101.331211 -0.413888 -2.825384 3.897364 5.049656 -36.293313 
179.216747 0.000000 -463.314768 180.000000 55.627286 180.000000 -1.672987 84.382698 7.274476 93.731282 13.896361 176.378801 171.506228 -4.759090 175.793893 -78.905146 4.952997 -11.874351 90.332448 8.000551 0.747231 21.454553 0.003095 -0.000001 164.792042 -7.143204 -173.357769 -45.182835 1.053504 5.733429 91.944045 -2.673295 10.265995 21.454557 -0.003104 -0.000016 9.024824 2.133186 -0.612409 8.022192 4.303519 -1.076315 7.703168 4.297078 -1.102314 -11.324790 -3.833813 7.291533 -0.473296 -5.510589 6.724684 -179.536003 -68.774520 -1.730131 4.782949 50.833270 26.466853 -99.127724 0.332713 2.688010 6.175647 -5.199286 19.442287 155.205694 69.598583 -24.323536 17.832987 -41.867157 -26.415637 -96.987143 0.857327 -2.719687 3.249355 6.230395 -34.458021 
